<svg width="16" height="15" viewBox="0 0 16 15" fill="none" xmlns="http://www.w3.org/2000/svg">
<mask id="path-1-inside-1_372_247" fill="white">
<path d="M5.75 10C6.05 10 6.25 9.8 6.25 9.5C6.25 9.2 6.05 9 5.75 9C5.45 9 5.25 9.2 5.25 9.5C5.25 9.8 5.45 10 5.75 10Z"/>
<path d="M15 2H13V0H12V2H4V0H3V2H1C0.4 2 0 2.4 0 3V14C0 14.5 0.4 15 1 15H15C15.5 15 16 14.5 16 14V3C16 2.4 15.5 2 15 2ZM15 14H1V7H15V14ZM1 6V3H3V5H4V3H12V5H13V3H15V6H1Z"/>
<path d="M8 10C8.3 10 8.5 9.8 8.5 9.5C8.5 9.2 8.3 9 8 9C7.7 9 7.5 9.2 7.5 9.5C7.5 9.8 7.7 10 8 10Z"/>
<path d="M10.25 10C10.55 10 10.75 9.8 10.75 9.5C10.75 9.2 10.55 9 10.25 9C9.95 9 9.75 9.2 9.75 9.5C9.75 9.8 9.95 10 10.25 10Z"/>
<path d="M5.75 11C5.45 11 5.25 11.2 5.25 11.5C5.25 11.8 5.45 12 5.75 12C6.05 12 6.25 11.8 6.25 11.5C6.25 11.2 6.05 11 5.75 11Z"/>
<path d="M3.5 10C3.8 10 4 9.8 4 9.5C4 9.2 3.8 9 3.5 9C3.2 9 3 9.2 3 9.5C3 9.8 3.2 10 3.5 10Z"/>
<path d="M3.5 11C3.2 11 3 11.2 3 11.5C3 11.8 3.2 12 3.5 12C3.8 12 4 11.8 4 11.5C4 11.2 3.8 11 3.5 11Z"/>
<path d="M8 11C7.7 11 7.5 11.2 7.5 11.5C7.5 11.8 7.7 12 8 12C8.3 12 8.5 11.8 8.5 11.5C8.5 11.2 8.3 11 8 11Z"/>
<path d="M10.25 11C9.95 11 9.75 11.2 9.75 11.5C9.75 11.8 9.95 12 10.25 12C10.55 12 10.75 11.8 10.75 11.5C10.75 11.2 10.55 11 10.25 11Z"/>
<path d="M12.5 10C12.8 10 13 9.8 13 9.5C13 9.2 12.8 9 12.5 9C12.2 9 12 9.2 12 9.5C12 9.8 12.2 10 12.5 10Z"/>
<path d="M12.5 11C12.2 11 12 11.2 12 11.5C12 11.8 12.2 12 12.5 12C12.8 12 13 11.8 13 11.5C13 11.2 12.8 11 12.5 11Z"/>
</mask>
<path d="M5.75 10C6.05 10 6.25 9.8 6.25 9.5C6.25 9.2 6.05 9 5.75 9C5.45 9 5.25 9.2 5.25 9.5C5.25 9.8 5.45 10 5.75 10Z" fill="black"/>
<path d="M15 2H13V0H12V2H4V0H3V2H1C0.4 2 0 2.4 0 3V14C0 14.5 0.4 15 1 15H15C15.5 15 16 14.5 16 14V3C16 2.4 15.5 2 15 2ZM15 14H1V7H15V14ZM1 6V3H3V5H4V3H12V5H13V3H15V6H1Z" fill="black"/>
<path d="M8 10C8.3 10 8.5 9.8 8.5 9.5C8.5 9.2 8.3 9 8 9C7.7 9 7.5 9.2 7.5 9.5C7.5 9.8 7.7 10 8 10Z" fill="black"/>
<path d="M10.25 10C10.55 10 10.75 9.8 10.75 9.5C10.75 9.2 10.55 9 10.25 9C9.95 9 9.75 9.2 9.75 9.5C9.75 9.8 9.95 10 10.25 10Z" fill="black"/>
<path d="M5.75 11C5.45 11 5.25 11.2 5.25 11.5C5.25 11.8 5.45 12 5.75 12C6.05 12 6.25 11.8 6.25 11.5C6.25 11.2 6.05 11 5.75 11Z" fill="black"/>
<path d="M3.5 10C3.8 10 4 9.8 4 9.5C4 9.2 3.8 9 3.5 9C3.2 9 3 9.2 3 9.5C3 9.8 3.2 10 3.5 10Z" fill="black"/>
<path d="M3.5 11C3.2 11 3 11.2 3 11.5C3 11.8 3.2 12 3.5 12C3.8 12 4 11.8 4 11.5C4 11.2 3.8 11 3.5 11Z" fill="black"/>
<path d="M8 11C7.7 11 7.5 11.2 7.5 11.5C7.5 11.8 7.7 12 8 12C8.3 12 8.5 11.8 8.5 11.5C8.5 11.2 8.3 11 8 11Z" fill="black"/>
<path d="M10.25 11C9.95 11 9.75 11.2 9.75 11.5C9.75 11.8 9.95 12 10.25 12C10.55 12 10.75 11.8 10.75 11.5C10.75 11.2 10.55 11 10.25 11Z" fill="black"/>
<path d="M12.5 10C12.8 10 13 9.8 13 9.5C13 9.2 12.8 9 12.5 9C12.2 9 12 9.2 12 9.5C12 9.8 12.2 10 12.5 10Z" fill="black"/>
<path d="M12.5 11C12.2 11 12 11.2 12 11.5C12 11.8 12.2 12 12.5 12C12.8 12 13 11.8 13 11.5C13 11.2 12.8 11 12.5 11Z" fill="black"/>
<path d="M13 2H12V3H13V2ZM13 0H14V-1H13V0ZM12 0V-1H11V0H12ZM12 2V3H13V2H12ZM4 2H3V3H4V2ZM4 0H5V-1H4V0ZM3 0V-1H2V0H3ZM3 2V3H4V2H3ZM15 14V15H16V14H15ZM1 14H0V15H1V14ZM1 7V6H0V7H1ZM15 7H16V6H15V7ZM1 6H0V7H1V6ZM1 3V2H0V3H1ZM3 3H4V2H3V3ZM3 5H2V6H3V5ZM4 5V6H5V5H4ZM4 3V2H3V3H4ZM12 3H13V2H12V3ZM12 5H11V6H12V5ZM13 5V6H14V5H13ZM13 3V2H12V3H13ZM15 3H16V2H15V3ZM15 6V7H16V6H15ZM5.75 11C6.12725 11 6.51933 10.8699 6.81961 10.5696C7.11989 10.2693 7.25 9.87725 7.25 9.5H5.25C5.25 9.42275 5.28011 9.28067 5.40539 9.15539C5.53067 9.03011 5.67275 9 5.75 9V11ZM7.25 9.5C7.25 9.12275 7.11989 8.73067 6.81961 8.43039C6.51933 8.13011 6.12725 8 5.75 8V10C5.67275 10 5.53067 9.96989 5.40539 9.84461C5.28011 9.71933 5.25 9.57725 5.25 9.5H7.25ZM5.75 8C5.37275 8 4.98067 8.13011 4.68039 8.43039C4.38011 8.73067 4.25 9.12275 4.25 9.5H6.25C6.25 9.57725 6.21989 9.71933 6.09461 9.84461C5.96933 9.96989 5.82725 10 5.75 10V8ZM4.25 9.5C4.25 9.87725 4.38011 10.2693 4.68039 10.5696C4.98067 10.8699 5.37275 11 5.75 11V9C5.82725 9 5.96933 9.03011 6.09461 9.15539C6.21989 9.28067 6.25 9.42275 6.25 9.5H4.25ZM15 1H13V3H15V1ZM14 2V0H12V2H14ZM13 -1H12V1H13V-1ZM11 0V2H13V0H11ZM12 1H4V3H12V1ZM5 2V0H3V2H5ZM4 -1H3V1H4V-1ZM2 0V2H4V0H2ZM3 1H1V3H3V1ZM1 1C0.472752 1 -0.0443276 1.18011 -0.432107 1.56789C-0.819886 1.95567 -1 2.47275 -1 3H1C1 2.96128 1.00634 2.9467 1.00522 2.9496C1.00474 2.95085 1.00288 2.95525 0.998774 2.96162C0.994639 2.96804 0.989071 2.97514 0.982107 2.98211C0.975143 2.98907 0.96804 2.99464 0.961623 2.99877C0.955246 3.00288 0.950855 3.00474 0.949604 3.00522C0.946698 3.00634 0.961282 3 1 3V1ZM-1 14C-1 14.9862 -0.216147 16 1 16V14H-1ZM1 16H15V14H1V16ZM15 16C15.5752 16 16.0668 15.7225 16.3946 15.3946C16.7225 15.0668 17 14.5752 17 14H15C15 13.9791 15.0026 13.9638 15.0047 13.9549C15.0068 13.9461 15.0086 13.9428 15.0079 13.9443C15.0072 13.9458 15.0047 13.9506 14.9997 13.9577C14.9947 13.9648 14.9882 13.9726 14.9804 13.9804C14.9726 13.9882 14.9648 13.9947 14.9577 13.9997C14.9506 14.0047 14.9458 14.0072 14.9443 14.0079C14.9428 14.0086 14.9461 14.0068 14.9549 14.0047C14.9638 14.0026 14.9791 14 15 14V16ZM17 3C17 1.78385 15.9862 1 15 1V3H17ZM15 13H1V15H15V13ZM2 14V7H0V14H2ZM1 8H15V6H1V8ZM14 7V14H16V7H14ZM2 6V3H0V6H2ZM1 4H3V2H1V4ZM2 3V5H4V3H2ZM3 6H4V4H3V6ZM5 5V3H3V5H5ZM4 4H12V2H4V4ZM11 3V5H13V3H11ZM12 6H13V4H12V6ZM14 5V3H12V5H14ZM13 4H15V2H13V4ZM14 3V6H16V3H14ZM15 5H1V7H15V5ZM8 11C8.37725 11 8.76933 10.8699 9.06961 10.5696C9.36989 10.2693 9.5 9.87725 9.5 9.5H7.5C7.5 9.42275 7.53011 9.28067 7.65539 9.15539C7.78067 9.03011 7.92275 9 8 9V11ZM9.5 9.5C9.5 9.12275 9.36989 8.73067 9.06961 8.43039C8.76933 8.13011 8.37725 8 8 8V10C7.92275 10 7.78067 9.96989 7.65539 9.84461C7.53011 9.71933 7.5 9.57725 7.5 9.5H9.5ZM8 8C7.62275 8 7.23067 8.13011 6.93039 8.43039C6.63011 8.73067 6.5 9.12275 6.5 9.5H8.5C8.5 9.57725 8.46989 9.71933 8.34461 9.84461C8.21933 9.96989 8.07725 10 8 10V8ZM6.5 9.5C6.5 9.87725 6.63011 10.2693 6.93039 10.5696C7.23067 10.8699 7.62275 11 8 11V9C8.07725 9 8.21933 9.03011 8.34461 9.15539C8.46989 9.28067 8.5 9.42275 8.5 9.5H6.5ZM10.25 11C10.6272 11 11.0193 10.8699 11.3196 10.5696C11.6199 10.2693 11.75 9.87725 11.75 9.5H9.75C9.75 9.42275 9.78011 9.28067 9.90539 9.15539C10.0307 9.03011 10.1728 9 10.25 9V11ZM11.75 9.5C11.75 9.12275 11.6199 8.73067 11.3196 8.43039C11.0193 8.13011 10.6272 8 10.25 8V10C10.1728 10 10.0307 9.96989 9.90539 9.84461C9.78011 9.71933 9.75 9.57725 9.75 9.5H11.75ZM10.25 8C9.87275 8 9.48067 8.13011 9.18039 8.43039C8.88011 8.73067 8.75 9.12275 8.75 9.5H10.75C10.75 9.57725 10.7199 9.71933 10.5946 9.84461C10.4693 9.96989 10.3272 10 10.25 10V8ZM8.75 9.5C8.75 9.87725 8.88011 10.2693 9.18039 10.5696C9.48067 10.8699 9.87275 11 10.25 11V9C10.3272 9 10.4693 9.03011 10.5946 9.15539C10.7199 9.28067 10.75 9.42275 10.75 9.5H8.75ZM5.75 10C5.37275 10 4.98067 10.1301 4.68039 10.4304C4.38011 10.7307 4.25 11.1228 4.25 11.5H6.25C6.25 11.5772 6.21989 11.7193 6.09461 11.8446C5.96933 11.9699 5.82725 12 5.75 12V10ZM4.25 11.5C4.25 11.8772 4.38011 12.2693 4.68039 12.5696C4.98067 12.8699 5.37275 13 5.75 13V11C5.82725 11 5.96933 11.0301 6.09461 11.1554C6.21989 11.2807 6.25 11.4228 6.25 11.5H4.25ZM5.75 13C6.12725 13 6.51933 12.8699 6.81961 12.5696C7.11989 12.2693 7.25 11.8772 7.25 11.5H5.25C5.25 11.4228 5.28011 11.2807 5.40539 11.1554C5.53067 11.0301 5.67275 11 5.75 11V13ZM7.25 11.5C7.25 11.1228 7.11989 10.7307 6.81961 10.4304C6.51933 10.1301 6.12725 10 5.75 10V12C5.67275 12 5.53067 11.9699 5.40539 11.8446C5.28011 11.7193 5.25 11.5772 5.25 11.5H7.25ZM3.5 11C3.87725 11 4.26933 10.8699 4.56961 10.5696C4.86989 10.2693 5 9.87725 5 9.5H3C3 9.42275 3.03011 9.28067 3.15539 9.15539C3.28067 9.03011 3.42275 9 3.5 9V11ZM5 9.5C5 9.12275 4.86989 8.73067 4.56961 8.43039C4.26933 8.13011 3.87725 8 3.5 8V10C3.42275 10 3.28067 9.96989 3.15539 9.84461C3.03011 9.71933 3 9.57725 3 9.5H5ZM3.5 8C3.12275 8 2.73067 8.13011 2.43039 8.43039C2.13011 8.73067 2 9.12275 2 9.5H4C4 9.57725 3.96989 9.71933 3.84461 9.84461C3.71933 9.96989 3.57725 10 3.5 10V8ZM2 9.5C2 9.87725 2.13011 10.2693 2.43039 10.5696C2.73067 10.8699 3.12275 11 3.5 11V9C3.57725 9 3.71933 9.03011 3.84461 9.15539C3.96989 9.28067 4 9.42275 4 9.5H2ZM3.5 10C3.12275 10 2.73067 10.1301 2.43039 10.4304C2.13011 10.7307 2 11.1228 2 11.5H4C4 11.5772 3.96989 11.7193 3.84461 11.8446C3.71933 11.9699 3.57725 12 3.5 12V10ZM2 11.5C2 11.8772 2.13011 12.2693 2.43039 12.5696C2.73067 12.8699 3.12275 13 3.5 13V11C3.57725 11 3.71933 11.0301 3.84461 11.1554C3.96989 11.2807 4 11.4228 4 11.5H2ZM3.5 13C3.87725 13 4.26933 12.8699 4.56961 12.5696C4.86989 12.2693 5 11.8772 5 11.5H3C3 11.4228 3.03011 11.2807 3.15539 11.1554C3.28067 11.0301 3.42275 11 3.5 11V13ZM5 11.5C5 11.1228 4.86989 10.7307 4.56961 10.4304C4.26933 10.1301 3.87725 10 3.5 10V12C3.42275 12 3.28067 11.9699 3.15539 11.8446C3.03011 11.7193 3 11.5772 3 11.5H5ZM8 10C7.62275 10 7.23067 10.1301 6.93039 10.4304C6.63011 10.7307 6.5 11.1228 6.5 11.5H8.5C8.5 11.5772 8.46989 11.7193 8.34461 11.8446C8.21933 11.9699 8.07725 12 8 12V10ZM6.5 11.5C6.5 11.8772 6.63011 12.2693 6.93039 12.5696C7.23067 12.8699 7.62275 13 8 13V11C8.07725 11 8.21933 11.0301 8.34461 11.1554C8.46989 11.2807 8.5 11.4228 8.5 11.5H6.5ZM8 13C8.37725 13 8.76933 12.8699 9.06961 12.5696C9.36989 12.2693 9.5 11.8772 9.5 11.5H7.5C7.5 11.4228 7.53011 11.2807 7.65539 11.1554C7.78067 11.0301 7.92275 11 8 11V13ZM9.5 11.5C9.5 11.1228 9.36989 10.7307 9.06961 10.4304C8.76933 10.1301 8.37725 10 8 10V12C7.92275 12 7.78067 11.9699 7.65539 11.8446C7.53011 11.7193 7.5 11.5772 7.5 11.5H9.5ZM10.25 10C9.87275 10 9.48067 10.1301 9.18039 10.4304C8.88011 10.7307 8.75 11.1228 8.75 11.5H10.75C10.75 11.5772 10.7199 11.7193 10.5946 11.8446C10.4693 11.9699 10.3272 12 10.25 12V10ZM8.75 11.5C8.75 11.8772 8.88011 12.2693 9.18039 12.5696C9.48067 12.8699 9.87275 13 10.25 13V11C10.3272 11 10.4693 11.0301 10.5946 11.1554C10.7199 11.2807 10.75 11.4228 10.75 11.5H8.75ZM10.25 13C10.6272 13 11.0193 12.8699 11.3196 12.5696C11.6199 12.2693 11.75 11.8772 11.75 11.5H9.75C9.75 11.4228 9.78011 11.2807 9.90539 11.1554C10.0307 11.0301 10.1728 11 10.25 11V13ZM11.75 11.5C11.75 11.1228 11.6199 10.7307 11.3196 10.4304C11.0193 10.1301 10.6272 10 10.25 10V12C10.1728 12 10.0307 11.9699 9.90539 11.8446C9.78011 11.7193 9.75 11.5772 9.75 11.5H11.75ZM12.5 11C12.8772 11 13.2693 10.8699 13.5696 10.5696C13.8699 10.2693 14 9.87725 14 9.5H12C12 9.42275 12.0301 9.28067 12.1554 9.15539C12.2807 9.03011 12.4228 9 12.5 9V11ZM14 9.5C14 9.12275 13.8699 8.73067 13.5696 8.43039C13.2693 8.13011 12.8772 8 12.5 8V10C12.4228 10 12.2807 9.96989 12.1554 9.84461C12.0301 9.71933 12 9.57725 12 9.5H14ZM12.5 8C12.1228 8 11.7307 8.13011 11.4304 8.43039C11.1301 8.73067 11 9.12275 11 9.5H13C13 9.57725 12.9699 9.71933 12.8446 9.84461C12.7193 9.96989 12.5772 10 12.5 10V8ZM11 9.5C11 9.87725 11.1301 10.2693 11.4304 10.5696C11.7307 10.8699 12.1228 11 12.5 11V9C12.5772 9 12.7193 9.03011 12.8446 9.15539C12.9699 9.28067 13 9.42275 13 9.5H11ZM12.5 10C12.1228 10 11.7307 10.1301 11.4304 10.4304C11.1301 10.7307 11 11.1228 11 11.5H13C13 11.5772 12.9699 11.7193 12.8446 11.8446C12.7193 11.9699 12.5772 12 12.5 12V10ZM11 11.5C11 11.8772 11.1301 12.2693 11.4304 12.5696C11.7307 12.8699 12.1228 13 12.5 13V11C12.5772 11 12.7193 11.0301 12.8446 11.1554C12.9699 11.2807 13 11.4228 13 11.5H11ZM12.5 13C12.8772 13 13.2693 12.8699 13.5696 12.5696C13.8699 12.2693 14 11.8772 14 11.5H12C12 11.4228 12.0301 11.2807 12.1554 11.1554C12.2807 11.0301 12.4228 11 12.5 11V13ZM14 11.5C14 11.1228 13.8699 10.7307 13.5696 10.4304C13.2693 10.1301 12.8772 10 12.5 10V12C12.4228 12 12.2807 11.9699 12.1554 11.8446C12.0301 11.7193 12 11.5772 12 11.5H14ZM-1 3V14H1V3H-1ZM17 14V3H15V14H17Z" fill="#C8C5C5" mask="url(#path-1-inside-1_372_247)"/>
</svg>
